<svg width="20" height="20" viewBox="0 0 20 20" fill="none" xmlns="http://www.w3.org/2000/svg">
<path d="M18 15.5V16.25C18.4142 16.25 18.75 15.9142 18.75 15.5H18ZM2 15.5H1.25C1.25 15.9142 1.58579 16.25 2 16.25V15.5ZM7.88904 8.33357C8.24321 8.11877 8.35618 7.65753 8.14138 7.30337C7.92658 6.9492 7.46534 6.83622 7.11118 7.05103L7.88904 8.33357ZM3.95807 11.3197C3.85756 11.7215 4.10184 12.1287 4.50367 12.2292C4.90551 12.3298 5.31274 12.0855 5.41324 11.6836L3.95807 11.3197ZM2.5 16.25H17.5V14.75H2.5V16.25ZM17.25 12.5V15.5H18.75V12.5H17.25ZM18 14.75H2V16.25H18V14.75ZM2.75 15.5V12.5H1.25V15.5H2.75ZM10.75 3C10.75 3.41421 10.4142 3.75 10 3.75V5.25C11.2426 5.25 12.25 4.24264 12.25 3H10.75ZM10 3.75C9.58579 3.75 9.25 3.41421 9.25 3H7.75C7.75 4.24264 8.75736 5.25 10 5.25V3.75ZM9.25 3C9.25 2.58579 9.58579 2.25 10 2.25V0.75C8.75736 0.75 7.75 1.75736 7.75 3H9.25ZM10 2.25C10.4142 2.25 10.75 2.58579 10.75 3H12.25C12.25 1.75736 11.2426 0.75 10 0.75V2.25ZM7.11118 7.05103C5.5637 7.98957 4.40969 9.51404 3.95807 11.3197L5.41324 11.6836C5.76689 10.2697 6.67222 9.07157 7.88904 8.33357L7.11118 7.05103ZM10 5.25C14.0041 5.25 17.25 8.49594 17.25 12.5H18.75C18.75 7.66751 14.8325 3.75 10 3.75V5.25ZM10 3.75C5.16751 3.75 1.25 7.66751 1.25 12.5H2.75C2.75 8.49594 5.99594 5.25 10 5.25V3.75ZM2.5 16.25H17.5V14.75H2.5V16.25ZM17.5 17.75H2.5V19.25H17.5V17.75ZM2.5 17.75C2.08579 17.75 1.75 17.4142 1.75 17H0.25C0.25 18.2426 1.25736 19.25 2.5 19.25V17.75ZM18.25 17C18.25 17.4142 17.9142 17.75 17.5 17.75V19.25C18.7426 19.25 19.75 18.2426 19.75 17H18.25ZM17.5 16.25C17.9142 16.25 18.25 16.5858 18.25 17H19.75C19.75 15.7574 18.7426 14.75 17.5 14.75V16.25ZM2.5 14.75C1.25736 14.75 0.25 15.7574 0.25 17H1.75C1.75 16.5858 2.08579 16.25 2.5 16.25V14.75Z" fill="#8204FF"/>
</svg>
