<svg width="40" height="40" viewBox="0 0 40 40" fill="none" xmlns="http://www.w3.org/2000/svg">
<rect width="40" height="40" rx="20" fill="#E5DCFC"/>
<path fill-rule="evenodd" clip-rule="evenodd" d="M29.3141 20.9585L24.9131 26.7073C22.9219 29.3083 21.9263 30.6088 20.6272 30.8498C20.2126 30.9268 19.7874 30.9268 19.3728 30.8498C18.0737 30.6088 17.0781 29.3083 15.0869 26.7073L10.6859 20.9585C9.3397 19.2 8.66658 18.3207 8.57623 17.3322C8.54686 17.0109 8.56287 16.6871 8.62379 16.3703C8.81121 15.3955 9.56777 14.5869 11.0809 12.9698L12.6105 11.335C13.4126 10.4778 13.8136 10.0492 14.3143 9.78138C14.4799 9.69284 14.6523 9.61802 14.8301 9.55765C15.3678 9.375 15.9547 9.375 17.1286 9.375H22.8714C24.0453 9.375 24.6322 9.375 25.1699 9.55765C25.3477 9.61802 25.5201 9.69284 25.6857 9.78138C26.1864 10.0492 26.5874 10.4778 27.3895 11.335L27.3895 11.335L28.9191 12.9698C30.4322 14.5869 31.1888 15.3955 31.3762 16.3703C31.4371 16.6871 31.4531 17.0109 31.4238 17.3322C31.3334 18.3207 30.6603 19.2 29.3141 20.9585ZM18.3076 13.125L18.1742 13.1249C17.4067 13.1243 16.801 13.1238 16.2367 13.3253C16.0515 13.3915 15.8723 13.4734 15.7011 13.5703C15.1795 13.8652 14.7837 14.3236 14.2821 14.9046L14.1949 15.0055L13.0409 16.3399C12.752 16.6739 12.7354 17.1642 13.0011 17.517L15.5011 20.8373C15.8125 21.251 16.4003 21.3338 16.8139 21.0224C17.2275 20.7109 17.3104 20.1232 16.9989 19.7095L14.9542 16.9939L15.6131 16.2321C16.2446 15.5019 16.4214 15.317 16.624 15.2024C16.7019 15.1584 16.7833 15.1211 16.8675 15.0911C17.0867 15.0128 17.3423 15 18.3076 15H20C20.5178 15 20.9375 14.5803 20.9375 14.0625C20.9375 13.5447 20.5178 13.125 20 13.125H18.3076Z" fill="#8204FF"/>
</svg>
