<svg width="24" height="24" viewBox="0 0 24 24" fill="none" xmlns="http://www.w3.org/2000/svg">
<path fill-rule="evenodd" clip-rule="evenodd" d="M17.4 2.25H17.3567H17.3567C16.2685 2.24999 15.3911 2.24998 14.6896 2.32598C13.9647 2.40452 13.3393 2.57134 12.7958 2.96619C12.4775 3.19749 12.1975 3.47745 11.9662 3.79581C11.5713 4.33926 11.4045 4.96473 11.326 5.68957C11.2503 6.38823 11.25 7.26137 11.25 8.34336L9.04649 8.04956L9.00344 8.04382C7.8614 7.89154 6.94461 7.76929 6.20663 7.74998C5.44802 7.73013 4.78115 7.81385 4.17889 8.14843C3.71375 8.40683 3.30893 8.76126 2.99132 9.18817C2.58008 9.74093 2.40896 10.3909 2.32837 11.1455C2.24998 11.8795 2.24999 12.8044 2.25 13.9566V13.9566V14V14.0434V14.0434C2.24999 15.1956 2.24998 16.1205 2.32837 16.8545C2.40896 17.6091 2.58008 18.2591 2.99132 18.8118C3.30893 19.2387 3.71375 19.5932 4.17889 19.8516C4.78115 20.1861 5.44802 20.2699 6.20663 20.25C6.94461 20.2307 7.86141 20.1085 9.00345 19.9562L9.04649 19.9504L11.3854 19.6386C11.717 19.5944 11.83 19.5803 11.9404 19.5773C11.9801 19.5763 12.0199 19.5763 12.0596 19.5773C12.17 19.5803 12.283 19.5944 12.6146 19.6386L14.9535 19.9504L14.9966 19.9562C16.1386 20.1085 17.0554 20.2307 17.7934 20.25C18.552 20.2699 19.2188 20.1861 19.8211 19.8516C20.2862 19.5932 20.6911 19.2387 21.0087 18.8118C21.4199 18.2591 21.591 17.6091 21.6716 16.8545C21.75 16.1205 21.75 15.1956 21.75 14.0434V14V13.9566C21.75 12.8044 21.75 11.8795 21.6716 11.1455C21.591 10.3909 21.4199 9.74093 21.0087 9.18817C20.6911 8.76126 20.2862 8.40683 19.8211 8.14843C19.2188 7.81385 18.552 7.73013 17.7934 7.74998C17.0554 7.76929 16.1386 7.89154 14.9966 8.04382L14.9535 8.04956L12.75 8.34336C12.7501 7.23197 12.7521 6.45224 12.8173 5.85114C12.882 5.25392 13.0016 4.92262 13.1797 4.67748C13.3185 4.48647 13.4865 4.31849 13.6775 4.17971C13.9226 4.00161 14.2539 3.88196 14.8511 3.81726C15.4624 3.75103 16.2584 3.75 17.4 3.75H17.5C17.9142 3.75 18.25 3.41421 18.25 3C18.25 2.58579 17.9142 2.25 17.5 2.25H17.4ZM4.90733 9.45968C5.17361 9.31176 5.53029 9.2328 6.16739 9.24947C6.81587 9.26643 7.65317 9.37706 8.84824 9.5364L11.9009 9.94342C11.9667 9.95219 12.0333 9.95219 12.0991 9.94342L15.1518 9.5364C16.3468 9.37706 17.1841 9.26643 17.8326 9.24947C18.4697 9.2328 18.8264 9.31176 19.0927 9.45968C19.3717 9.61472 19.6146 9.82738 19.8052 10.0835C19.987 10.3279 20.1124 10.671 20.1801 11.3047C20.249 11.9498 20.25 12.7944 20.25 14C20.25 15.2057 20.249 16.0502 20.1801 16.6953C20.1124 17.329 19.987 17.6721 19.8052 17.9165C19.6146 18.1726 19.3717 18.3853 19.0927 18.5403C18.8264 18.6882 18.4697 18.7672 17.8326 18.7505C17.1841 18.7336 16.3468 18.6229 15.1518 18.4636L12.8128 18.1517L12.7766 18.1469C12.4945 18.1093 12.299 18.0832 12.0994 18.0779C12.0331 18.0761 11.9669 18.0761 11.9006 18.0779C11.701 18.0832 11.5055 18.1093 11.2234 18.1469L11.1872 18.1517L8.84824 18.4636C7.65317 18.6229 6.81587 18.7336 6.16739 18.7505C5.53029 18.7672 5.17361 18.6882 4.90733 18.5403C4.62825 18.3853 4.38536 18.1726 4.1948 17.9165C4.01298 17.6721 3.88757 17.329 3.81989 16.6953C3.75101 16.0502 3.75 15.2057 3.75 14C3.75 12.7944 3.75101 11.9498 3.81989 11.3047C3.88757 10.671 4.01298 10.3279 4.1948 10.0835C4.38536 9.82738 4.62825 9.61472 4.90733 9.45968ZM8.75 12.5C8.75 12.0858 8.41421 11.75 8 11.75C7.58579 11.75 7.25 12.0858 7.25 12.5V13.25H6.5C6.08579 13.25 5.75 13.5858 5.75 14C5.75 14.4142 6.08579 14.75 6.5 14.75H7.25V15.5C7.25 15.9142 7.58579 16.25 8 16.25C8.41421 16.25 8.75 15.9142 8.75 15.5V14.75H9.5C9.91421 14.75 10.25 14.4142 10.25 14C10.25 13.5858 9.91421 13.25 9.5 13.25H8.75V12.5ZM16 13.25C15.5858 13.25 15.25 12.9142 15.25 12.5C15.25 12.0858 15.5858 11.75 16 11.75C16.4142 11.75 16.75 12.0858 16.75 12.5C16.75 12.9142 16.4142 13.25 16 13.25ZM14.5 14.75C14.9142 14.75 15.25 14.4142 15.25 14C15.25 13.5858 14.9142 13.25 14.5 13.25C14.0858 13.25 13.75 13.5858 13.75 14C13.75 14.4142 14.0858 14.75 14.5 14.75ZM17.5 14.75C17.9142 14.75 18.25 14.4142 18.25 14C18.25 13.5858 17.9142 13.25 17.5 13.25C17.0858 13.25 16.75 13.5858 16.75 14C16.75 14.4142 17.0858 14.75 17.5 14.75ZM15.25 15.5C15.25 15.9142 15.5858 16.25 16 16.25C16.4142 16.25 16.75 15.9142 16.75 15.5C16.75 15.0858 16.4142 14.75 16 14.75C15.5858 14.75 15.25 15.0858 15.25 15.5Z" fill="#133568"/>
</svg>
