<svg width="25" height="24" viewBox="0 0 25 24" fill="none" xmlns="http://www.w3.org/2000/svg">
<path d="M12.5 21V21C15.3089 21 16.7134 21 17.7223 20.3259C18.159 20.034 18.534 19.659 18.8259 19.2223C19.5 18.2134 19.5 16.8089 19.5 14V10H12.5M12.5 21V21C9.69108 21 8.28661 21 7.27772 20.3259C6.84096 20.034 6.46596 19.659 6.17412 19.2223C5.5 18.2134 5.5 16.8089 5.5 14V10H12.5M12.5 21V10M9.5 3L11.75 6M15.5 3L13.25 6M11.75 6H5.5C4.39543 6 3.5 6.89543 3.5 8V8C3.5 9.10457 4.39543 10 5.5 10H19.5C20.6046 10 21.5 9.10457 21.5 8V8C21.5 6.89543 20.6046 6 19.5 6H13.25M11.75 6H13.25" stroke="#1F7DFD" stroke-width="1.5" stroke-linecap="round" stroke-linejoin="round"/>
</svg>
