<svg width="18" height="20" viewBox="0 0 18 20" fill="none" xmlns="http://www.w3.org/2000/svg">
<path d="M10.9994 16.5H14.4333C16.0267 16.5 16.8833 14.6282 15.8418 13.4224L15.1296 12.5978C14.2486 11.5777 13.8256 10.2404 13.9598 8.89923V8.89923C14.249 6.00848 11.979 3.5 9.07381 3.5H8.92639C6.02099 3.5 3.7507 6.00849 4.03964 8.89949V8.89949C4.17366 10.2405 3.7507 11.5777 2.86986 12.5977L2.15791 13.4221C1.11645 14.6282 1.9732 16.5 3.56666 16.5H6.9994M10.9994 16.5V17C10.9994 18.1046 10.104 19 8.9994 19V19C7.89483 19 6.9994 18.1046 6.9994 17V16.5M10.9994 16.5H6.9994M6.9994 3.5V3C6.9994 1.89543 7.89483 1 8.9994 1V1C10.104 1 10.9994 1.89543 10.9994 3V3.5H6.9994Z" stroke="#424242" stroke-width="1.5" stroke-linejoin="round"/>
</svg>
