<svg width="25" height="24" viewBox="0 0 25 24" fill="none" xmlns="http://www.w3.org/2000/svg">
<path d="M17.4459 16.9449C17.6411 16.7496 17.6411 16.4331 17.4459 16.2378L17.0923 15.8842L16.3852 16.5914L16.7388 16.9449C16.934 17.1402 17.2506 17.1402 17.4459 16.9449Z" fill="#0A0338"/>
<path d="M11.75 12.1992C11.75 11.785 12.0858 11.4492 12.5 11.4492C12.9142 11.4492 13.25 11.785 13.25 12.1992C13.25 12.6134 12.9142 12.9492 12.5 12.9492C12.0858 12.9492 11.75 12.6134 11.75 12.1992Z" fill="#FFC887"/>
<path d="M17.0923 15.8842V15.8842C19.2402 13.7364 19.2402 10.254 17.0923 8.10607L16.7388 7.75252C14.3956 5.40937 10.5966 5.40937 8.2535 7.75252V7.75252C5.91035 10.0957 5.91035 13.8947 8.2535 16.2378L8.60705 16.5914C10.7549 18.7392 14.2373 18.7392 16.3852 16.5914V16.5914M17.0923 15.8842L17.4459 16.2378C17.6411 16.4331 17.6411 16.7496 17.4459 16.9449V16.9449C17.2506 17.1402 16.934 17.1402 16.7388 16.9449L16.3852 16.5914M17.0923 15.8842L16.3852 16.5914M12.5 11.4492V11.4492C12.0858 11.4492 11.75 11.785 11.75 12.1992V12.1992C11.75 12.6134 12.0858 12.9492 12.5 12.9492V12.9492C12.9142 12.9492 13.25 12.6134 13.25 12.1992V12.1992M12.5 11.4492V11.4492C12.9142 11.4492 13.25 11.785 13.25 12.1992V12.1992M12.5 11.4492V8.69922M13.25 12.1992H15M6.25736 13.9913L4.85938 15.3893C4.06395 16.1847 3.66623 16.5824 3.58998 17.0638C3.56536 17.2193 3.56536 17.3776 3.58998 17.5331C3.66623 18.0145 4.06395 18.4122 4.85938 19.2076L5.28365 19.6319C6.07909 20.4274 6.47681 20.8251 6.95818 20.9013C7.11365 20.9259 7.27202 20.9259 7.42749 20.9013C7.90887 20.8251 8.30659 20.4274 9.10202 19.6319L10.5 18.2339M14.5 5.74866L15.8902 4.35841C16.6857 3.56297 17.0834 3.16525 17.5648 3.08901C17.7203 3.06438 17.8786 3.06438 18.0341 3.08901C18.5155 3.16525 18.9132 3.56297 19.7086 4.35841L20.1329 4.78267C20.9283 5.57811 21.326 5.97583 21.4023 6.45721C21.4269 6.61267 21.4269 6.77105 21.4023 6.92651C21.326 7.40789 20.9283 7.80561 20.1329 8.60105L18.7426 9.9913" stroke="#FFC887" stroke-width="1.5" stroke-linecap="round" stroke-linejoin="round"/>
</svg>
