<svg width="20" height="20" viewBox="0 0 20 20" fill="none" xmlns="http://www.w3.org/2000/svg">
<path d="M4.16667 10V10C4.16667 11.5577 4.16667 12.3366 4.5016 12.9167C4.72102 13.2968 5.03662 13.6123 5.41667 13.8318C5.99679 14.1667 6.77564 14.1667 8.33333 14.1667H12.195C13.1616 14.1667 13.6449 14.1667 14.0697 14.0072C14.3507 13.9017 14.6103 13.7466 14.8363 13.5491C15.1779 13.2505 15.4069 12.8248 15.8647 11.9735V11.9735C17.028 9.81022 17.6097 8.72858 17.4364 7.84979C17.3244 7.28162 17.0186 6.76995 16.5713 6.40219C15.8794 5.83337 14.6512 5.83337 12.195 5.83337H8.33333C6.77564 5.83337 5.99679 5.83337 5.41667 6.16831C5.03662 6.38773 4.72102 6.70333 4.5016 7.08337C4.16667 7.6635 4.16667 8.44235 4.16667 10V10ZM4.16667 10V5.00004C4.16667 4.07957 3.42047 3.33337 2.5 3.33337V3.33337M10.4167 8.33337V10M10.4167 10V11.6667M10.4167 10H8.75M10.4167 10H12.0833M7.70833 15.4167C7.70833 16.1071 7.14869 16.6667 6.45833 16.6667C5.76798 16.6667 5.20833 16.1071 5.20833 15.4167C5.20833 14.7264 5.76798 14.1667 6.45833 14.1667C7.14869 14.1667 7.70833 14.7264 7.70833 15.4167ZM14.375 15.4167C14.375 16.1071 13.8154 16.6667 13.125 16.6667C12.4346 16.6667 11.875 16.1071 11.875 15.4167C11.875 14.7264 12.4346 14.1667 13.125 14.1667C13.8154 14.1667 14.375 14.7264 14.375 15.4167Z" stroke="#8204FF" stroke-width="1.25" stroke-linecap="round" stroke-linejoin="round"/>
</svg>
